<!-- public/weathervine.svg -->
<svg xmlns="http://www.w3.org/2000/svg" viewBox="0 0 64 64">
  <!-- Sun -->
  <defs>
    <linearGradient id="sun" x1="0" x2="0" y1="0" y2="1">
      <stop offset="0" stop-color="#FDB813"/>
      <stop offset="1" stop-color="#FFA000"/>
    </linearGradient>
  </defs>
  <g transform="translate(6,6)">
    <circle cx="34" cy="18" r="10" fill="url(#sun)" />
    <!-- Rays -->
    <g stroke="#FFA000" stroke-linecap="round" stroke-width="3">
      <line x1="34" y1="3"  x2="34" y2="0"/>
      <line x1="34" y1="35" x2="34" y2="38"/>
      <line x1="19" y1="18" x2="16" y2="18"/>
      <line x1="52" y1="18" x2="55" y2="18"/>
      <line x1="24" y1="8"  x2="22" y2="6"/>
      <line x1="44" y1="28" x2="46" y2="30"/>
      <line x1="24" y1="28" x2="22" y2="30"/>
      <line x1="44" y1="8"  x2="46" y2="6"/>
    </g>

    <!-- Cloud -->
    <g>
      <path d="M14 36a8 8 0 0 1 1.3-15.9 10 10 0 0 1 18.8-3.1A9 9 0 1 1 40 36H14Z"
            fill="#E6EEF6"/>
      <path d="M14 36a8 8 0 0 1 1.3-15.9 10 10 0 0 1 18.8-3.1A9 9 0 1 1 40 36H14Z"
            fill="none" stroke="#CAD7E3" stroke-width="2"/>
    </g>
  </g>
</svg>
